<svg version="1.1" id="Layer_1" xmlns="http://www.w3.org/2000/svg" xmlns:xlink="http://www.w3.org/1999/xlink" x="0px" y="0px"
	 width="100%" viewBox="0 0 1024 1024" enable-background="new 0 0 1024 1024" xml:space="preserve">
<path fill="#000000" opacity="1.000000" stroke="none" 
	d="
M462.813477,491.993744 
	C460.119049,476.078125 454.924805,461.303741 450.146729,446.414124 
	C444.334564,428.301880 439.205811,410.074280 439.666382,390.769836 
	C439.983429,377.481079 443.452332,364.800049 446.967377,352.139008 
	C451.818878,334.664185 456.935516,317.260437 460.124146,299.373993 
	C460.677856,296.267853 461.161530,293.148285 461.620148,290.026489 
	C461.908539,288.063293 461.751984,285.616272 464.197876,285.163757 
	C466.498169,284.738190 467.609314,286.951935 468.729034,288.537842 
	C475.526978,298.165924 480.401794,308.723419 483.235626,320.146454 
	C490.288879,348.577637 488.580078,376.905182 481.900330,405.139008 
	C477.917969,421.971741 472.443604,438.461456 469.966034,455.634247 
	C469.045929,462.011749 468.855347,468.494507 468.846008,475.030090 
	C470.526337,468.980652 472.179169,462.923370 473.891846,456.883087 
	C480.764282,432.645508 489.116821,408.875732 500.000763,386.202087 
	C506.617218,372.418671 506.659760,358.913757 502.868958,344.994904 
	C499.153137,331.351471 494.532104,317.955872 490.372162,304.431824 
	C483.642456,282.553436 483.599304,260.476685 489.103119,238.410538 
	C491.879608,227.278870 495.433350,216.340820 498.651367,205.319809 
	C499.077026,203.861938 499.597290,202.219894 501.374084,202.142822 
	C503.432983,202.053543 504.129150,203.712860 504.464447,205.438721 
	C508.761993,227.560959 517.319031,248.484619 522.837219,270.225586 
	C528.882874,294.045166 525.977356,317.802216 518.768860,341.096985 
	C518.345032,342.466553 517.346741,343.712189 517.779541,345.832825 
	C529.999084,318.897949 542.654602,292.688782 551.729309,264.946106 
	C552.957275,261.191956 551.443787,258.834290 549.389282,256.424591 
	C543.140747,249.095581 538.889587,240.778549 535.603821,231.718613 
	C532.512146,223.193985 533.351685,214.621811 535.680237,206.695618 
	C537.999084,198.802261 546.145386,195.811935 553.596863,193.864838 
	C562.759766,191.470551 572.138550,192.216904 581.286865,194.497864 
	C591.414368,197.022980 594.782104,202.558182 592.816833,212.672867 
	C592.662964,213.464844 592.524353,214.364212 592.741211,215.107925 
	C595.439819,224.362228 591.241516,231.780319 586.079041,238.668716 
	C579.925537,246.879379 571.964050,253.231750 563.411011,258.841003 
	C561.198059,260.292297 559.029602,261.627289 558.174500,264.547028 
	C548.830200,296.453613 535.016296,326.604248 521.716675,356.956085 
	C520.343445,360.090118 519.078857,363.271790 518.124268,366.719574 
	C530.372559,345.053802 549.131287,330.829742 570.664185,319.684204 
	C574.505859,317.695740 578.154724,315.333832 581.886169,313.133453 
	C598.109619,303.566742 613.914001,293.335632 629.655579,283.004700 
	C630.769470,282.273651 631.877380,281.519775 633.053406,280.900696 
	C634.349548,280.218414 635.757568,279.219513 637.124817,280.686462 
	C638.286377,281.932678 637.473877,283.217224 636.838684,284.362732 
	C626.975342,302.150543 616.688965,319.627106 603.524841,335.296692 
	C584.413452,358.045471 561.086182,374.550385 533.015259,384.326294 
	C532.387390,384.544952 531.774231,384.813446 531.171387,385.095490 
	C498.697174,400.288208 503.894623,397.241943 493.025177,426.232147 
	C482.605377,454.023163 475.466278,482.731171 470.543427,512.020081 
	C475.188934,500.296387 480.349365,488.827484 486.681213,477.925598 
	C498.062775,458.329315 514.523315,443.612122 532.667725,430.609222 
	C551.489624,417.120819 570.833679,404.332214 587.897827,388.539337 
	C589.399109,387.149933 591.121582,385.739349 593.199585,387.156219 
	C595.079956,388.438324 594.424255,390.501221 593.812500,392.194336 
	C582.934021,422.301422 569.418274,450.917694 547.789246,475.098206 
	C531.031921,493.832336 512.015198,509.906464 491.652100,524.537659 
	C482.579163,531.056763 474.129028,538.361145 467.501862,547.543091 
	C465.671204,550.079529 464.631714,552.803955 464.399170,555.834595 
	C461.922394,588.108521 461.933777,620.315857 466.008881,652.511658 
	C467.911072,667.540100 470.835205,682.360046 473.454803,697.248230 
	C473.617462,698.172913 473.982788,699.061829 474.511780,699.929260 
	C473.351044,691.581055 475.040649,683.288879 474.639069,674.981384 
	C472.913147,639.277100 483.560242,607.453796 504.315735,578.589050 
	C523.979553,551.242493 542.518005,523.164978 557.245483,492.746277 
	C558.382507,490.397919 559.416321,486.503571 562.891235,487.470062 
	C566.528381,488.481720 564.492554,492.215698 564.156677,494.462769 
	C560.055542,521.900696 558.625305,549.803955 550.759827,576.597229 
	C541.692749,607.483643 528.007141,636.281616 510.717957,663.423096 
	C499.410248,681.174561 489.485382,699.591980 483.798859,720.082947 
	C481.892426,726.952637 481.860352,733.458862 483.827545,740.192383 
	C492.650360,770.391968 501.126740,800.709778 515.311340,829.009216 
	C515.876648,830.137085 516.853333,831.304443 515.596924,832.919067 
	C511.852112,831.336853 510.029602,827.891479 508.118469,824.711792 
	C499.133911,809.763489 493.494995,793.357117 487.658936,777.047119 
	C475.007996,741.691589 466.495850,705.276794 459.957642,668.363281 
	C459.262451,664.438293 458.622925,660.482727 458.314392,656.513611 
	C457.009674,639.730896 445.839294,628.126831 436.561188,615.719177 
	C423.286133,597.966431 409.273773,580.778992 400.424225,560.158020 
	C393.586060,544.223938 389.965881,527.779541 389.431213,510.315125 
	C388.916840,493.514038 389.578461,476.665131 387.918152,459.889557 
	C387.659668,457.277618 386.283234,453.357361 389.468719,452.214478 
	C393.083710,450.917450 394.121552,455.176483 395.786835,457.426758 
	C400.642120,463.987640 404.979767,470.952362 410.090790,477.299408 
	C425.760803,496.758759 432.380157,519.863403 437.280365,543.657654 
	C441.337036,563.355713 442.754272,583.508728 447.246918,603.138855 
	C448.946838,610.566406 451.528473,617.719238 454.643433,626.265137 
	C454.675323,617.519775 454.216095,610.277832 454.151733,603.040039 
	C453.867126,571.032410 456.424072,539.233032 462.174774,507.711914 
	C463.093536,502.675995 464.553070,497.603210 462.813477,491.993744 
M516.635315,586.071594 
	C501.377563,613.205688 488.571594,641.239380 484.728790,672.588928 
	C483.940491,679.020020 482.872864,685.417358 482.112305,691.851318 
	C481.379272,698.052551 480.876923,704.281006 480.273193,710.497498 
	C481.067627,708.908264 481.408844,707.283203 481.733643,705.654846 
	C487.779510,675.346985 496.503418,645.951904 510.580597,618.265015 
	C520.914001,597.941284 530.965515,577.468750 540.795532,556.896729 
	C546.152649,545.685608 551.078491,534.233765 553.382141,521.833923 
	C542.249146,543.626953 529.616760,564.525146 516.635315,586.071594 
M469.051422,437.751770 
	C470.171631,433.403503 471.187622,429.025208 472.428955,424.711761 
	C480.526642,396.573364 486.488586,368.193817 482.715149,338.632690 
	C481.202789,326.784912 478.418396,315.323639 472.656342,303.186096 
	C474.463348,315.560577 473.230682,326.525055 473.256134,337.471771 
	C473.311615,361.318817 470.126434,384.926483 467.690338,408.589081 
	C466.150482,423.545868 464.661255,438.515808 465.357910,454.048431 
	C466.584717,448.578125 467.709229,443.563934 469.051422,437.751770 
M526.770935,594.132996 
	C511.717651,624.046631 497.338135,654.227295 489.527588,687.530701 
	C501.725769,664.248718 516.687378,643.098816 527.310486,619.487793 
	C539.027405,593.445984 549.845215,559.680786 550.125977,545.404114 
	C543.133240,562.077515 535.064758,577.745544 526.770935,594.132996 
M532.174744,448.691498 
	C506.053650,468.505798 488.231720,494.476318 475.861694,524.505676 
	C477.180481,523.481445 478.304749,522.298828 479.269379,520.997803 
	C495.689972,498.851746 514.664856,479.023773 534.549622,460.019684 
	C549.483032,445.747589 564.112122,431.191620 576.565735,414.627289 
	C578.456543,412.112274 580.257751,409.510498 580.911072,406.261292 
	C566.320496,422.049713 549.306458,434.895996 532.174744,448.691498 
M436.614746,566.772888 
	C434.379913,551.129272 431.116333,535.714783 426.711975,520.526794 
	C421.805237,503.606506 411.999603,485.390381 402.917572,476.863342 
	C403.670074,479.027344 404.466187,481.212555 405.192352,483.420776 
	C415.265991,514.054138 423.457336,545.215088 431.385681,576.454712 
	C434.435974,588.473694 437.967194,600.361694 444.397949,611.163391 
	C440.218384,596.935120 438.626526,582.264771 436.614746,566.772888 
M570.768738,429.125519 
	C541.570007,460.646240 508.356110,488.445374 482.702667,524.041748 
	C505.372589,508.303894 525.797119,490.901642 544.001404,470.869751 
	C554.726440,459.067963 563.476746,445.999939 570.821960,431.927979 
	C571.266968,431.075470 573.069641,429.996490 570.768738,429.125519 
M444.402191,398.163147 
	C445.928802,418.217468 451.985321,437.176392 458.419739,456.069458 
	C458.545349,454.919098 458.397736,453.808075 458.275818,452.694244 
	C456.774414,438.978088 454.788910,425.293671 453.884033,411.538147 
	C452.213654,386.144928 455.200958,361.063232 460.236359,336.180756 
	C462.561646,324.690369 465.123291,313.205597 464.488647,301.330078 
	C461.250854,319.181488 456.517456,336.649933 451.597229,354.087524 
	C447.620148,368.182617 444.259186,382.438385 444.402191,398.163147 
M539.956238,376.410980 
	C575.282837,363.233521 599.107605,337.096161 619.047363,306.578613 
	C590.727844,333.436523 558.062439,354.966675 527.745422,380.232391 
	C528.848755,380.392181 529.208496,380.561615 529.467468,380.463928 
	C532.736389,379.231079 535.990723,377.959717 539.956238,376.410980 
M463.475037,340.895752 
	C463.356995,341.886597 463.310974,342.892242 463.110413,343.866089 
	C457.747589,369.908905 455.893555,396.160675 458.400696,422.671814 
	C458.697632,425.811615 459.047241,428.947906 459.448273,432.076080 
	C459.843201,435.156158 460.334503,438.223846 460.783508,441.296967 
	C463.784821,398.004303 470.459717,355.073090 468.897919,311.663727 
	C467.771759,321.261139 465.583038,330.636414 463.475037,340.895752 
M511.868866,333.588165 
	C512.864319,328.309448 512.958069,322.964630 512.541199,317.653473 
	C511.630890,306.057159 510.675140,294.469452 508.732666,282.970398 
	C506.014679,266.880585 502.360962,250.965057 500.237549,233.336823 
	C492.838715,272.314667 505.263885,307.952301 509.957031,344.332306 
	C511.458191,341.119598 511.739899,337.821625 511.868866,333.588165 
M574.430664,330.998962 
	C551.223938,345.358337 530.008240,361.928986 514.740356,385.124847 
	C548.294861,357.312073 585.039551,333.415527 616.125488,302.548492 
	C602.701660,312.335846 588.671814,321.184906 574.430664,330.998962 
M417.424072,561.135742 
	C419.444702,565.702148 421.392181,570.302734 423.506500,574.825317 
	C425.606354,579.316956 427.874054,583.730103 430.068115,588.177612 
	C420.911438,550.520630 411.683655,512.980652 397.628143,476.855957 
	C401.054840,505.445892 406.019653,533.655396 417.424072,561.135742 
M510.738312,271.956207 
	C514.600464,292.731018 517.824158,313.556671 515.686890,334.827148 
	C520.596802,318.422607 522.900696,301.785614 521.164001,284.669403 
	C519.116882,264.493164 509.028320,246.699982 504.603210,227.230743 
	C504.755066,242.140503 508.117462,256.561340 510.738312,271.956207 
M407.239197,545.158447 
	C401.044037,526.308228 397.430786,506.886047 394.427917,487.328644 
	C392.316833,532.612366 408.291840,580.773621 432.679993,601.766724 
	C423.641479,583.077454 413.682343,565.334961 407.239197,545.158447 
M525.678894,559.146301 
	C518.608582,569.835999 511.585419,580.557312 504.458527,591.209167 
	C487.349792,616.779846 479.396393,644.949768 480.431000,676.832458 
	C482.708130,662.845032 484.793182,649.928650 488.810028,637.503052 
	C496.693207,613.117310 508.788513,590.719604 522.261230,569.051514 
	C528.648865,558.778442 534.859558,548.432739 539.766052,537.316895 
	C535.204834,544.393494 530.643555,551.470154 525.678894,559.146301 
M558.959778,421.453674 
	C562.217163,418.430786 565.474548,415.407928 568.731934,412.385040 
	C563.635254,415.441681 558.996155,418.958771 554.187073,422.225800 
	C536.412476,434.300659 518.753967,446.486603 504.217255,462.587646 
	C491.910706,476.218567 483.622406,492.073608 477.708893,509.296539 
	C478.365326,508.740021 478.795197,508.052979 479.146484,507.327850 
	C490.654236,483.572815 506.919861,463.654205 527.269958,446.896759 
	C537.548706,438.432678 548.703552,431.070312 558.959778,421.453674 
M576.210876,321.776428 
	C565.203247,328.298462 553.690979,334.006439 543.842712,342.377411 
	C537.389709,347.862427 528.322266,358.695068 526.433716,363.589966 
	C547.395508,340.143616 576.461792,327.348663 600.338318,307.590912 
	C592.503479,312.190399 584.668640,316.789917 576.210876,321.776428 
M494.441711,301.120300 
	C495.442566,304.456085 496.416626,307.800201 497.452057,311.125183 
	C498.422913,314.242767 499.458832,317.340118 500.466095,320.446350 
	C497.086029,295.761932 491.384003,271.439697 493.792877,246.301590 
	C488.378113,264.399414 489.869537,282.372620 494.441711,301.120300 
M570.049683,224.677322 
	C571.081055,219.637421 572.671143,214.628174 570.597290,209.326340 
	C564.428101,220.811523 565.600098,233.911743 562.462341,246.052032 
	C566.041260,239.568207 568.354553,232.672241 570.049683,224.677322 
M552.081787,234.817261 
	C552.229553,235.528290 552.377380,236.239304 552.525146,236.950317 
	C553.733704,228.732468 554.134644,220.538849 555.447815,212.424637 
	C555.825195,210.092285 554.037354,208.291611 551.440308,208.411911 
	C548.716492,208.538116 549.184570,210.799713 549.237793,212.549713 
	C549.458923,219.826508 550.768677,226.974106 552.081787,234.817261 
M574.709778,218.016479 
	C573.956421,222.029587 573.203064,226.042679 572.449707,230.055786 
	C575.578308,224.342865 578.126465,218.422241 580.644226,212.488739 
	C582.351624,208.465088 580.337280,207.565414 576.847473,207.726395 
	C575.419373,210.900146 575.486450,214.106552 574.709778,218.016479 
M544.576843,234.859985 
	C542.238098,228.747772 541.063232,222.304794 539.108337,216.083344 
	C537.083435,227.594666 542.539734,236.983765 548.021912,246.366287 
	C546.934998,242.790176 545.848022,239.214050 544.576843,234.859985 
M545.267273,211.222366 
	C542.032227,211.045898 542.467957,213.123672 542.808472,215.185226 
	C544.153137,223.325958 546.629517,231.148270 549.547974,238.863281 
	C548.236572,229.833542 546.925110,220.803818 545.267273,211.222366 
M557.195984,231.409714 
	C556.926758,233.877640 556.561951,236.339935 556.416443,238.815140 
	C556.283569,241.075089 556.388245,243.348999 556.388245,245.616760 
	C559.306946,236.757416 562.217651,227.984756 558.772034,217.612747 
	C557.935974,222.641754 557.023865,226.490829 557.195984,231.409714 
M583.724731,205.627487 
	C585.519226,206.678024 586.663086,208.769226 588.994690,209.056946 
	C589.876831,202.704269 582.929443,197.515198 575.500549,198.907654 
	C576.154907,203.332718 580.795044,202.883606 583.724731,205.627487 
M582.397583,223.994110 
	C587.380432,215.017822 587.380432,215.017822 585.019958,212.840866 
	C580.619080,222.453156 576.256348,231.982193 571.893616,241.511246 
	C576.348694,236.500092 578.918335,230.408173 582.397583,223.994110 
M540.472656,205.248703 
	C540.180542,205.782776 539.488770,206.708023 540.265259,206.864243 
	C544.214966,207.658844 552.034485,202.065140 552.792053,197.730927 
	C548.274841,199.478348 544.282776,201.634232 540.472656,205.248703 
M584.466370,228.871857 
	C583.136841,231.402420 581.807373,233.932983 580.477844,236.463547 
	C585.006653,232.001373 588.852661,227.226379 589.016724,220.530350 
	C587.614197,223.096146 586.211609,225.661926 584.466370,228.871857 
z"/>
</svg>